<svg xmlns="http://www.w3.org/2000/svg" xmlns:xlink="http://www.w3.org/1999/xlink" id="Layer_1" x="0" y="0" version="1.1" viewBox="0 0 453.1 123.8" style="enable-background:new 0 0 453.1 123.8" xml:space="preserve"><style type="text/css">.st0{fill:#fff}.st1{fill:#0ab89b}</style><switch><g><g><g><path d="M70.3,18.5c-9-8.8-20.2-13.2-33.7-13.2H18.8V22H35c8.6,0,15.6,2.7,21.1,8.2c5.4,5.5,8.2,12.5,8.2,21.1 c0,8.5-2.7,15.5-8.2,21.1C50.7,78,43.6,80.8,35,80.8H18.8v16.7h17.8c13.5,0,24.8-4.4,33.7-13.2s13.4-19.8,13.4-32.9 C83.8,38.3,79.3,27.3,70.3,18.5z" class="st0"/><g><path d="M18.8,22H0c4,9,6.3,18.9,6.3,29.4C6.3,61.8,4,71.8,0,80.8h18.8c4-9,6.3-18.9,6.3-29.4 C25.1,40.9,22.9,31,18.8,22z" class="st1"/></g></g><path d="M143.7,37.5V0h17.8v97.5h-17.8v-8c-5.7,6.2-12.9,9.4-21.6,9.4c-9.3,0-17.1-3.4-23.3-10.1 c-6.2-6.8-9.4-15.1-9.4-25.2c0-10,3.1-18.4,9.4-25.2c6.2-6.8,14-10.1,23.3-10.1C130.8,28.2,138,31.3,143.7,37.5z M113,77.1 c3.4,3.6,7.7,5.5,12.8,5.5c5.1,0,9.4-1.8,12.8-5.5c3.4-3.6,5.1-8.2,5.1-13.6c0-5.4-1.7-10-5.1-13.6c-3.4-3.6-7.7-5.4-12.8-5.4 c-5.1,0-9.4,1.8-12.8,5.5c-3.4,3.6-5.1,8.1-5.1,13.5C107.9,68.9,109.6,73.5,113,77.1z" class="st0"/><path d="M179.1,88.7c-6.9-6.8-10.4-15.1-10.4-25.2c0-10,3.5-18.4,10.4-25.2c6.9-6.8,15.6-10.1,26-10.1 s19,3.4,26,10.1c6.9,6.8,10.4,15.1,10.4,25.2c0,10-3.5,18.4-10.4,25.2c-6.9,6.8-15.6,10.1-26,10.1S186.1,95.4,179.1,88.7z M187.2,63.5c0,5.4,1.7,10,5.1,13.6c3.4,3.6,7.7,5.5,12.8,5.5c5.1,0,9.4-1.8,12.8-5.5c3.4-3.6,5.1-8.2,5.1-13.6 c0-5.4-1.7-10-5.1-13.6c-3.4-3.6-7.7-5.4-12.8-5.4c-5.1,0-9.4,1.8-12.8,5.5C188.9,53.6,187.2,58.1,187.2,63.5z" class="st0"/><path d="M244.8,79.2l17.8-3.7c0.8,6.1,4.8,9.2,12.1,9.2c3.6,0,6.5-0.7,8.7-2c2.2-1.4,3.3-3.1,3.3-5.1 c0-1.9-1-3.5-3-4.6c-2-1.1-4.4-1.9-7.4-2.2c-2.9-0.3-6.1-0.9-9.6-1.7c-3.5-0.8-6.7-1.8-9.6-2.9c-2.9-1.1-5.4-3.1-7.4-5.9 c-2-2.8-3-6.3-3-10.5c0-6.1,2.7-11.3,8-15.3c5.3-4.1,12-6.1,20-6.1c8,0,14.6,1.8,19.8,5.3c5.2,3.6,8.3,8.3,9.2,14.3L286,51.5 c-0.9-6.1-4.7-9.2-11.3-9.2c-2.9,0-5.3,0.6-7.2,1.8c-1.9,1.2-2.8,2.8-2.8,4.7c0,2,1,3.6,3,4.7c2,1.1,4.4,1.9,7.4,2.2 c2.9,0.4,6.1,0.9,9.6,1.8c3.5,0.8,6.7,1.8,9.6,3c2.9,1.1,5.4,3.1,7.4,6c2,2.9,3,6.4,3,10.7c0,6.1-2.9,11.2-8.7,15.3 c-5.8,4.1-12.9,6.2-21.2,6.2c-8.3,0-15.2-1.8-20.5-5.3C248.9,89.9,245.8,85.1,244.8,79.2z" class="st0"/><rect width="17.8" height="68" x="311.6" y="29.5" class="st0"/><path d="M435.1,29.5L416,92.7l-17.4-63.2h-32v-4.2c0-6.4,3.2-9.6,9.6-9.6h8V0h-8c-9.3,0-16.2,2.2-20.7,6.5 c-4.5,4.3-6.7,11-6.7,19.8v3.2H335v15.7h13.7v52.3h17.8V45.2h17.6l16,52.3h14.4l-8,26.3h18l28.6-94.3H435.1z" class="st0"/><rect width="17.8" height="17.8" x="311.6" class="st0"/></g></g></switch></svg>